<svg width="500" height="500" viewBox="0 0 500 500" fill="none" xmlns="http://www.w3.org/2000/svg">
<g clip-path="url(#clip0_1_13)">
<rect width="500" height="500" rx="61" fill="url(#paint0_linear_1_13)"/>
<path d="M285 56.5C329 56.5 362 61.6667 384 72C406 82 417 98.1667 417 120.5C417 142.5 410.167 159.333 396.5 171C383.167 182.333 367.833 188 350.5 188C333.167 188 317.5 183.667 303.5 175C289.833 166 280.333 154.167 275 139.5C262.667 139.5 250.833 143.667 239.5 152C228.5 160 221.5 170.5 218.5 183.5C284.5 199.5 331.833 218.167 360.5 239.5C389.167 260.833 403.5 288.167 403.5 321.5C403.5 354.833 388.333 381.5 358 401.5C328 421.5 287.333 431.5 236 431.5C185 431.5 148.833 424.5 127.5 410.5C106.167 396.5 95.5 378 95.5 355C95.5 332 102.667 310.833 117 291.5C124 306.5 137.333 320 157 332C177 344 196.667 350 216 350C251.667 350 274.333 338.667 284 316C228.667 308.667 186.5 293.333 157.5 270C128.5 246.333 114 217.833 114 184.5C114 162.167 120 142.333 132 125C144 107.333 159.333 93.8333 178 84.5C214.667 65.8333 250.333 56.5 285 56.5Z" fill="white"/>
</g>
<defs>
<linearGradient id="paint0_linear_1_13" x1="-94" y1="32" x2="549" y2="520" gradientUnits="userSpaceOnUse">
<stop stop-color="#0125A4"/>
<stop offset="1" stop-color="#00046F"/>
</linearGradient>
<clipPath id="clip0_1_13">
<rect width="500" height="500" rx="61" fill="white"/>
</clipPath>
</defs>
</svg>
